<?xml version="1.0" encoding="utf-8"?>
<!-- Generator: Adobe Illustrator 18.0.0, SVG Export Plug-In . SVG Version: 6.00 Build 0)  -->
<!DOCTYPE svg PUBLIC "-//W3C//DTD SVG 1.1//EN" "http://www.w3.org/Graphics/SVG/1.1/DTD/svg11.dtd">
<svg version="1.1" id="Layer_1" xmlns="http://www.w3.org/2000/svg" xmlns:xlink="http://www.w3.org/1999/xlink" x="0px" y="0px"
	 viewBox="0 0 40 40" enable-background="new 0 0 40 40" xml:space="preserve">
<g>
	<path fill="#FFFFFF" d="M37.4,16.9v14.3c0,3.7-3,6.8-6.8,6.8H9.2c-3.7,0-6.8-3-6.8-6.8V16.9V9.8C2.4,6,5.4,3,9.2,3h21.5
		c3.7,0,6.8,3,6.8,6.8V16.9z"/>
	<polygon points="33.4,12.5 33.4,7.4 33.4,6.6 32.6,6.6 27.4,6.6 27.4,12.6 	"/>
	<path d="M19.9,26.2c3.4,0,6.2-2.8,6.2-6.2c0-1.3-0.4-2.6-1.2-3.6c-1.1-1.6-2.9-2.6-5-2.6s-3.9,1-5,2.6c-0.7,1-1.2,2.3-1.2,3.6
		C13.8,23.5,16.5,26.2,19.9,26.2z"/>
	<path d="M29.5,20.1c0,5.3-4.3,9.6-9.6,9.6c-5.3,0-9.6-4.3-9.6-9.6c0-1.3,0.3-2.5,0.7-3.6H5.8v14.3c0,1.9,1.5,3.4,3.4,3.4h21.5
		c1.9,0,3.4-1.5,3.4-3.4V16.5h-5.2C29.2,17.6,29.5,18.8,29.5,20.1z"/>
</g>
</svg>
