<?xml version="1.0" encoding="utf-8"?>
<!-- Generator: Adobe Illustrator 18.0.0, SVG Export Plug-In . SVG Version: 6.00 Build 0)  -->
<!DOCTYPE svg PUBLIC "-//W3C//DTD SVG 1.1//EN" "http://www.w3.org/Graphics/SVG/1.1/DTD/svg11.dtd">
<svg version="1.1" id="Layer_1" xmlns="http://www.w3.org/2000/svg" xmlns:xlink="http://www.w3.org/1999/xlink" x="0px" y="0px"
	 viewBox="694.8 430 40 40" enable-background="new 694.8 430 40 40" xml:space="preserve">
<path fill="#FFFFFF" d="M715.6,432.5c-9.5,0-14.4,6.8-14.4,12.6c0,3.4,1.3,6.5,4,7.6c0.5,0.2,0.8,0,1-0.5c0.2-0.3,0.3-1.3,0.5-1.6
	c0.2-0.5,0.2-0.6-0.3-1.1c-0.8-1-1.3-2.3-1.3-3.9c0-5,3.9-9.7,9.9-9.7c5.3,0,8.4,3.2,8.4,7.8c0,5.8-2.6,10.7-6.3,10.7
	c-2.1,0-3.7-1.8-3.2-3.9c0.6-2.6,1.8-5.3,1.8-7.1c0-1.6-0.8-3.1-2.7-3.1c-2.1,0-3.9,2.3-3.9,5.2c0,1.9,0.6,3.2,0.6,3.2
	s-2.1,9.4-2.4,11c-0.8,3.2-0.2,7.3,0,7.6c0,0.2,0.3,0.3,0.5,0.2c0.2-0.3,2.7-3.4,3.6-6.6c0.3-1,1.5-5.5,1.5-5.5
	c0.6,1.3,2.7,2.4,4.9,2.4c6.5,0,10.8-5.8,10.8-13.7C728.4,438,723.4,432.5,715.6,432.5z"/>
</svg>
