<?xml version="1.0" encoding="utf-8"?>
<!-- Generator: Adobe Illustrator 18.0.0, SVG Export Plug-In . SVG Version: 6.00 Build 0)  -->
<!DOCTYPE svg PUBLIC "-//W3C//DTD SVG 1.1//EN" "http://www.w3.org/Graphics/SVG/1.1/DTD/svg11.dtd">
<svg version="1.1" id="Layer_1" xmlns="http://www.w3.org/2000/svg" xmlns:xlink="http://www.w3.org/1999/xlink" x="0px" y="0px"
	 viewBox="700 430 40 40" enable-background="new 700 430 40 40" xml:space="preserve">
<path fill="#FFFFFF" d="M737.5,439.1c-1.4,0.5-2.7,1-4.1,1.2c1.5-0.9,2.6-2.2,3.2-3.9c-1.4,0.9-2.9,1.4-4.6,1.7
	c-1.4-1.4-3.2-2.2-5.3-2.2c-3.9,0-7.2,3.2-7.2,7.2c0,0.5,0,1.2,0.2,1.7c-6-0.3-11.3-3.2-14.9-7.5c-0.7,1-1,2.2-1,3.6
	c0,2.6,1.2,4.8,3.2,6c-1.2,0-2.2-0.3-3.2-0.9c0,0,0,0,0,0.2c0,3.4,2.6,6.5,5.8,7c-0.7,0.2-1.2,0.2-1.9,0.2c-0.5,0-0.9,0-1.4-0.2
	c0.9,2.9,3.6,5,6.7,5c-2.4,1.9-5.6,3.1-8.9,3.1c-0.5,0-1.2,0-1.7-0.2c3.2,2,7,3.2,11.1,3.2c13.3,0,20.5-10.9,20.5-20.5
	c0-0.3,0-0.7,0-0.9C735.3,441.8,736.5,440.6,737.5,439.1z"/>
</svg>
