<?xml version="1.0" standalone="no"?><!DOCTYPE svg PUBLIC "-//W3C//DTD SVG 1.1//EN" "http://www.w3.org/Graphics/SVG/1.1/DTD/svg11.dtd"><svg width="100%" height="100%" viewBox="0 0 250 250" version="1.1" xmlns="http://www.w3.org/2000/svg" xmlns:xlink="http://www.w3.org/1999/xlink" xml:space="preserve" style="fill-rule:evenodd;clip-rule:evenodd;stroke-linejoin:round;stroke-miterlimit:1.41421;"><g><path d="M213.371,213.371c-22.626,22.626 -53.876,36.629 -88.371,36.629c-34.495,0 -65.745,-14.003 -88.371,-36.629l17.674,-17.674c18.101,18.101 43.101,29.303 70.697,29.303c27.596,0 52.596,-11.202 70.697,-29.303l17.674,17.674Z" style="fill:#4bd9ac;"/><path d="M125,0c34.495,0 65.745,14.003 88.371,36.629l0.265,0.266c22.471,22.604 36.364,53.745 36.364,88.105c0,34.495 -14.003,65.745 -36.629,88.371l-17.674,-17.674c18.101,-18.101 29.303,-43.101 29.303,-70.697c0,-27.596 -11.202,-52.596 -29.303,-70.697l-0.213,-0.212c-18.064,-17.957 -42.943,-29.067 -70.484,-29.091l0,-25Z" style="fill:#e9ebee;"/><path d="M125,0c-34.495,0 -65.745,14.003 -88.371,36.629l-0.265,0.266c-22.471,22.604 -36.364,53.745 -36.364,88.105c0,34.495 14.003,65.745 36.629,88.371l17.674,-17.674c-18.101,-18.101 -29.303,-43.101 -29.303,-70.697c0,-27.596 11.202,-52.596 29.303,-70.697l0.213,-0.212c18.064,-17.957 42.943,-29.067 70.484,-29.091l0,-25Z" style="fill:#c5c9d0;"/></g></svg>